<svg xmlns="http://www.w3.org/2000/svg" width="36" height="36" viewBox="0 0 36 36">
  <g id="Grupo_27716" data-name="Grupo 27716" transform="translate(-76.5 -196.5)">
    <path id="Trazado_10412" data-name="Trazado 10412" d="M684.108,341.69h0a17.5,17.5,0,1,1,17.5-17.5A17.5,17.5,0,0,1,684.108,341.69Z" transform="translate(-589.608 -109.69)" fill="none" stroke="#0d0b0d" stroke-miterlimit="10" stroke-width="1"/>
    <path id="Trazado_13703" data-name="Trazado 13703" d="M0,0H23V23H0Z" transform="translate(83 203)" fill="none"/>
    <path id="Trazado_13704" data-name="Trazado 13704" d="M7,10v4h3v7h4V14h3l1-4H14V8a1,1,0,0,1,1-1h3V3H15a5,5,0,0,0-5,5v2H7" transform="translate(82.48 202.5)" fill="none" stroke="#000" stroke-linecap="round" stroke-linejoin="round" stroke-width="2"/>
  </g>
</svg>
